<svg width="180" height="210" viewBox="0 0 180 210" fill="none" xmlns="http://www.w3.org/2000/svg">
<g opacity="0.9" filter="url(#filter0_f_2497_20124)">
<path fill-rule="evenodd" clip-rule="evenodd" d="M30 41.9235V145.57C30.0012 147.506 30.439 149.417 31.281 151.162C32.1231 152.907 33.3478 154.441 34.8649 155.651L83.9189 194.874C85.6446 196.25 87.7894 197 90 197C92.2106 197 94.3554 196.25 96.0811 194.874L145.135 155.651C146.652 154.441 147.877 152.907 148.719 151.162C149.561 149.417 149.999 147.506 150 145.57V41.9235C150 38.496 148.633 35.2089 146.2 32.7852C143.767 30.3616 140.468 29 137.027 29H42.973C39.5323 29 36.2326 30.3616 33.7997 32.7852C31.3668 35.2089 30 38.496 30 41.9235V41.9235Z" stroke="#1A66FF" stroke-width="6"/>
</g>
<g filter="url(#filter1_b_2497_20124)">
<path fill-rule="evenodd" clip-rule="evenodd" d="M30 41.9235V145.57C30.0012 147.506 30.439 149.417 31.281 151.162C32.1231 152.907 33.3478 154.441 34.8649 155.651L83.9189 194.874C85.6446 196.25 87.7894 197 90 197C92.2106 197 94.3554 196.25 96.0811 194.874L145.135 155.651C146.652 154.441 147.877 152.907 148.719 151.162C149.561 149.417 149.999 147.506 150 145.57V41.9235C150 38.496 148.633 35.2089 146.2 32.7852C143.767 30.3616 140.468 29 137.027 29H42.973C39.5323 29 36.2326 30.3616 33.7997 32.7852C31.3668 35.2089 30 38.496 30 41.9235Z" fill="url(#paint0_linear_2497_20124)" fill-opacity="0.2"/>
</g>
<g filter="url(#filter2_b_2497_20124)">
<path fill-rule="evenodd" clip-rule="evenodd" d="M36.112 154.087L36.1139 154.089L85.166 193.31C86.5369 194.403 88.2418 195 90 195C91.7582 195 93.4631 194.403 94.834 193.31L143.888 154.087C145.171 153.064 146.206 151.767 146.918 150.293C147.629 148.818 147.999 147.204 148 145.569V41.9235C148 39.0289 146.846 36.2513 144.789 34.2021C142.732 32.1527 139.94 31 137.027 31H42.973C40.0603 31 37.2685 32.1527 35.2112 34.2021C33.1542 36.2513 32 39.0289 32 41.9235V145.57C32.0011 147.205 32.3709 148.819 33.0823 150.293C33.7938 151.767 34.829 153.064 36.112 154.087ZM30 145.57V41.9235C30 38.496 31.3668 35.2089 33.7997 32.7852C36.2326 30.3616 39.5323 29 42.973 29H137.027C140.468 29 143.767 30.3616 146.2 32.7852C148.633 35.2089 150 38.496 150 41.9235V145.57C149.999 147.506 149.561 149.417 148.719 151.162C147.877 152.907 146.652 154.441 145.135 155.651L96.0811 194.874C94.3554 196.25 92.2106 197 90 197C87.7894 197 85.6446 196.25 83.9189 194.874L34.8649 155.651C33.3478 154.441 32.1231 152.907 31.281 151.162C30.439 149.417 30.0012 147.506 30 145.57Z" fill="url(#paint1_linear_2497_20124)"/>
</g>
<g opacity="0.4" filter="url(#filter3_f_2497_20124)">
<path d="M124.979 88.8847V66.2949C124.979 63.2993 123.799 60.4264 121.7 58.3082C119.6 56.19 116.752 55 113.782 55H66.1966C63.2271 55 60.3792 56.19 58.2794 58.3082C56.1796 60.4264 55 63.2993 55 66.2949V131.841C55.001 133.533 55.3789 135.203 56.1056 136.728C56.8324 138.252 57.8894 139.593 59.1987 140.651L76.5255 154.685C76.7312 154.853 76.98 154.959 77.243 154.99C77.5061 155.022 77.7725 154.977 78.0114 154.862C78.2503 154.746 78.4519 154.565 78.5927 154.339C78.7335 154.112 78.8078 153.85 78.8069 153.583V107.239C78.8069 106.864 78.9543 106.505 79.2168 106.241C79.4793 105.976 79.8352 105.827 80.2064 105.827H92.8027C95.0298 105.827 97.1657 106.72 98.7406 108.308C100.315 109.897 101.2 112.052 101.2 114.298V153.583C101.2 153.849 101.275 154.11 101.415 154.335C101.556 154.56 101.756 154.74 101.994 154.855C102.232 154.97 102.497 155.015 102.759 154.985C103.021 154.955 103.269 154.851 103.474 154.685L120.801 140.651C122.111 139.593 123.168 138.252 123.894 136.728C124.621 135.203 124.999 133.533 125 131.841V111.475C125 108.479 123.82 105.606 121.721 103.488C119.621 101.37 116.773 100.18 113.803 100.18C116.769 100.174 119.612 98.9815 121.707 96.8639C123.802 94.7463 124.979 91.8766 124.979 88.8847ZM92.7887 94.5322H80.1924C79.8213 94.5322 79.4653 94.3834 79.2028 94.1186C78.9403 93.8539 78.7929 93.4947 78.7929 93.1203V67.7068C78.7929 67.3323 78.9403 66.9732 79.2028 66.7084C79.4653 66.4437 79.8213 66.2949 80.1924 66.2949H99.7866C100.158 66.2949 100.514 66.4437 100.776 66.7084C101.039 66.9732 101.186 67.3323 101.186 67.7068V86.061C101.186 88.3077 100.301 90.4624 98.7266 92.051C97.1517 93.6397 95.0158 94.5322 92.7887 94.5322Z" stroke="#1A66FF" stroke-width="9"/>
</g>
<path d="M124.979 88.8847V66.2949C124.979 63.2993 123.799 60.4264 121.7 58.3082C119.6 56.19 116.752 55 113.782 55H66.1966C63.2271 55 60.3792 56.19 58.2794 58.3082C56.1796 60.4264 55 63.2993 55 66.2949V131.841C55.001 133.533 55.3789 135.203 56.1056 136.728C56.8324 138.252 57.8894 139.593 59.1987 140.651L76.5255 154.685C76.7312 154.853 76.98 154.959 77.243 154.99C77.5061 155.022 77.7725 154.977 78.0114 154.862C78.2503 154.746 78.4519 154.565 78.5927 154.339C78.7335 154.112 78.8078 153.85 78.8069 153.583V107.239C78.8069 106.864 78.9543 106.505 79.2168 106.241C79.4793 105.976 79.8352 105.827 80.2064 105.827H92.8027C95.0298 105.827 97.1657 106.72 98.7406 108.308C100.315 109.897 101.2 112.052 101.2 114.298V153.583C101.2 153.849 101.275 154.11 101.415 154.335C101.556 154.56 101.756 154.74 101.994 154.855C102.232 154.97 102.497 155.015 102.759 154.985C103.021 154.955 103.269 154.851 103.474 154.685L120.801 140.651C122.111 139.593 123.168 138.252 123.894 136.728C124.621 135.203 124.999 133.533 125 131.841V111.475C125 108.479 123.82 105.606 121.721 103.488C119.621 101.37 116.773 100.18 113.803 100.18C116.769 100.174 119.612 98.9815 121.707 96.8639C123.802 94.7463 124.979 91.8766 124.979 88.8847ZM92.7887 94.5322H80.1924C79.8213 94.5322 79.4653 94.3834 79.2028 94.1186C78.9403 93.8539 78.7929 93.4947 78.7929 93.1203V67.7068C78.7929 67.3323 78.9403 66.9732 79.2028 66.7084C79.4653 66.4437 79.8213 66.2949 80.1924 66.2949H99.7866C100.158 66.2949 100.514 66.4437 100.776 66.7084C101.039 66.9732 101.186 67.3323 101.186 67.7068V86.061C101.186 88.3077 100.301 90.4624 98.7266 92.051C97.1517 93.6397 95.0158 94.5322 92.7887 94.5322Z" fill="url(#paint2_linear_2497_20124)"/>
<defs>
<filter id="filter0_f_2497_20124" x="17" y="16" width="146" height="194" filterUnits="userSpaceOnUse" color-interpolation-filters="sRGB">
<feFlood flood-opacity="0" result="BackgroundImageFix"/>
<feBlend mode="normal" in="SourceGraphic" in2="BackgroundImageFix" result="shape"/>
<feGaussianBlur stdDeviation="5" result="effect1_foregroundBlur_2497_20124"/>
</filter>
<filter id="filter1_b_2497_20124" x="16.6486" y="15.6486" width="146.703" height="194.703" filterUnits="userSpaceOnUse" color-interpolation-filters="sRGB">
<feFlood flood-opacity="0" result="BackgroundImageFix"/>
<feGaussianBlur in="BackgroundImageFix" stdDeviation="6.67568"/>
<feComposite in2="SourceAlpha" operator="in" result="effect1_backgroundBlur_2497_20124"/>
<feBlend mode="normal" in="SourceGraphic" in2="effect1_backgroundBlur_2497_20124" result="shape"/>
</filter>
<filter id="filter2_b_2497_20124" x="16.6486" y="15.6486" width="146.703" height="194.703" filterUnits="userSpaceOnUse" color-interpolation-filters="sRGB">
<feFlood flood-opacity="0" result="BackgroundImageFix"/>
<feGaussianBlur in="BackgroundImageFix" stdDeviation="6.67568"/>
<feComposite in2="SourceAlpha" operator="in" result="effect1_backgroundBlur_2497_20124"/>
<feBlend mode="normal" in="SourceGraphic" in2="effect1_backgroundBlur_2497_20124" result="shape"/>
</filter>
<filter id="filter3_f_2497_20124" x="0.5" y="0.5" width="179" height="209" filterUnits="userSpaceOnUse" color-interpolation-filters="sRGB">
<feFlood flood-opacity="0" result="BackgroundImageFix"/>
<feBlend mode="normal" in="SourceGraphic" in2="BackgroundImageFix" result="shape"/>
<feGaussianBlur stdDeviation="25" result="effect1_foregroundBlur_2497_20124"/>
</filter>
<linearGradient id="paint0_linear_2497_20124" x1="111.45" y1="-28.2074" x2="7.42268" y2="213.548" gradientUnits="userSpaceOnUse">
<stop stop-color="white" stop-opacity="0.6"/>
<stop offset="1" stop-color="white" stop-opacity="0"/>
</linearGradient>
<linearGradient id="paint1_linear_2497_20124" x1="128.64" y1="21.8759" x2="4.45784" y2="180.088" gradientUnits="userSpaceOnUse">
<stop stop-color="white"/>
<stop offset="1" stop-color="white"/>
</linearGradient>
<linearGradient id="paint2_linear_2497_20124" x1="90" y1="55" x2="90" y2="155" gradientUnits="userSpaceOnUse">
<stop stop-color="white"/>
<stop offset="0.458333" stop-color="white"/>
<stop offset="1" stop-color="white"/>
</linearGradient>
</defs>
</svg>
